<svg width="19" height="10" viewBox="0 0 19 10" fill="none" xmlns="http://www.w3.org/2000/svg">
<path d="M9.26323 9.23532C8.95594 9.23767 8.65753 9.13263 8.4198 8.93844L0.491486 2.42532C0.22164 2.20422 0.0509218 1.88527 0.0168872 1.53863C-0.0171473 1.19199 0.0882899 0.846063 0.310004 0.576945C0.531717 0.307828 0.851546 0.137565 1.19913 0.103612C1.54672 0.0696594 1.89358 0.174798 2.16343 0.3959L9.24616 6.23177L16.2633 0.525633C16.3972 0.41592 16.5515 0.33368 16.7174 0.283641C16.8833 0.233601 17.0574 0.216749 17.2299 0.234052C17.4023 0.251355 17.5696 0.302472 17.7222 0.384466C17.8747 0.46646 18.0095 0.577715 18.1188 0.711833C18.24 0.846009 18.3321 1.0037 18.3894 1.17504C18.4466 1.34637 18.4678 1.52765 18.4515 1.70752C18.4353 1.88739 18.3819 2.06197 18.2949 2.22033C18.2078 2.37869 18.0889 2.51741 17.9456 2.6278L10.0905 9.00764C9.84804 9.17365 9.55676 9.25381 9.26323 9.23532V9.23532Z" fill="white"/>
</svg>
