<svg width="43" height="42" viewBox="0 0 43 42" fill="none" xmlns="http://www.w3.org/2000/svg">
<path fill-rule="evenodd" clip-rule="evenodd" d="M0.0106036 1.62059C0.00863311 1.2577 0.155734 0.90879 0.419545 0.650613C0.683356 0.392435 1.04227 0.246139 1.41732 0.243909L5.65977 0.218676C5.97522 0.216884 6.28213 0.317189 6.5317 0.50364C6.78128 0.690091 6.95918 0.951982 7.03713 1.24767L8.20668 5.67678L41.0432 5.48148C41.2509 5.48043 41.4562 5.52364 41.6445 5.60804C41.8329 5.69243 41.9997 5.81594 42.1331 5.96979C42.2665 6.12365 42.3632 6.30406 42.4164 6.49823C42.4695 6.6924 42.4779 6.89555 42.4407 7.09326L38.3171 29.0108C38.2582 29.3247 38.0877 29.6089 37.8353 29.8143C37.5828 30.0197 37.2642 30.1333 36.9345 30.1356L11.4798 30.287C11.1501 30.2886 10.8303 30.1788 10.5756 29.9764C10.321 29.7741 10.1474 29.4919 10.0851 29.1787L5.72679 7.35267L4.57159 2.96178L1.43218 2.98045C1.05713 2.98268 0.69665 2.84066 0.430052 2.58564C0.163454 2.33062 0.0125741 1.98348 0.0106036 1.62059ZM8.82114 8.40976L12.6387 27.5434L35.7459 27.406L39.3554 8.22815L8.82114 8.40976ZM14.3081 30.2701C12.8079 30.2791 11.3723 30.8642 10.317 31.897C9.26176 32.9297 8.67336 34.3253 8.68124 35.7769C8.68913 37.2284 9.29265 38.617 10.359 39.6371C11.4254 40.6572 12.8673 41.2252 14.3676 41.2163C15.8678 41.2074 17.3034 40.6222 18.3587 39.5895C19.4139 38.5568 20.0023 37.1611 19.9944 35.7096C19.9866 34.258 19.383 32.8695 18.3166 31.8494C17.2503 30.8293 15.8083 30.2612 14.3081 30.2701ZM34.1062 30.1524C32.606 30.1613 31.1703 30.7465 30.1151 31.7792C29.0599 32.8119 28.4715 34.2076 28.4793 35.6591C28.4872 37.1107 29.0907 38.4992 30.1571 39.5193C31.2235 40.5394 32.6654 41.1075 34.1657 41.0985C35.6659 41.0896 37.1015 40.5044 38.1568 39.4717C39.212 38.439 39.8004 37.0434 39.7925 35.5918C39.7847 34.1403 39.1811 32.7517 38.1147 31.7316C37.0483 30.7115 35.6064 30.1435 34.1062 30.1524ZM14.323 33.0067C13.5729 33.0111 12.855 33.3037 12.3274 33.8201C11.7998 34.3364 11.5056 35.0343 11.5095 35.76C11.5135 36.4858 11.8152 37.1801 12.3484 37.6901C12.8816 38.2002 13.6026 38.4842 14.3527 38.4798C15.1028 38.4753 15.8206 38.1827 16.3483 37.6663C16.8759 37.15 17.1701 36.4522 17.1661 35.7264C17.1622 35.0006 16.8604 34.3063 16.3272 33.7963C15.794 33.2863 15.0731 33.0022 14.323 33.0067ZM34.1211 32.8889C33.371 32.8934 32.6531 33.186 32.1255 33.7023C31.5979 34.2187 31.3037 34.9165 31.3076 35.6423C31.3116 36.3681 31.6133 37.0623 32.1465 37.5724C32.6797 38.0824 33.4007 38.3665 34.1508 38.362C34.9009 38.3575 35.6187 38.065 36.1464 37.5486C36.674 37.0322 36.9682 36.3344 36.9642 35.6086C36.9603 34.8829 36.6585 34.1886 36.1253 33.6785C35.5921 33.1685 34.8712 32.8845 34.1211 32.8889Z" fill="white"/>
</svg>
