<svg width="9" height="4" viewBox="0 0 9 4" fill="none" xmlns="http://www.w3.org/2000/svg">
<path d="M4.87057 3.12187C4.73729 3.12283 4.60793 3.0887 4.50494 3.02543L1.07024 0.903163C0.953338 0.831118 0.879488 0.727057 0.864938 0.613871C0.850388 0.500684 0.896328 0.387645 0.992654 0.29962C1.08898 0.211595 1.2278 0.155795 1.37857 0.144495C1.52935 0.133195 1.67973 0.16732 1.79663 0.239365L4.86499 2.14097L7.91193 0.273149C7.97008 0.237237 8.03706 0.210284 8.10904 0.193841C8.18102 0.177398 8.25656 0.171788 8.33134 0.177334C8.40611 0.18288 8.47864 0.199472 8.54476 0.226158C8.61087 0.252843 8.66927 0.289095 8.71659 0.33283C8.76908 0.376576 8.80894 0.42802 8.83367 0.48394C8.8584 0.53986 8.86746 0.599051 8.8603 0.657804C8.85314 0.716556 8.8299 0.773605 8.79204 0.825376C8.75418 0.877147 8.70252 0.922524 8.64029 0.958664L5.22952 3.04701C5.12425 3.10138 4.99787 3.12773 4.87057 3.12187Z" fill="white"/>
</svg>
