<svg width="24" height="24" viewBox="0 0 28 27" fill="none" xmlns="http://www.w3.org/2000/svg">
<g clip-path="url(#clip0_1431_82)">
<path d="M15.3058 13.806L14.8307 14.1481L13.3606 12.1066C13.2868 12.004 13.1207 11.9975 12.9894 12.092L12.5862 12.3824C12.4454 12.4838 12.3313 12.6152 12.2582 12.7605L11.9737 13.3254C11.9575 13.3576 11.9477 13.391 11.9449 13.4238C11.9421 13.4565 11.9464 13.4879 11.9575 13.5163C11.9686 13.5446 11.9862 13.5692 12.0095 13.5887C12.0328 13.6083 12.0612 13.6223 12.0931 13.6302L12.5791 13.7491C12.611 13.7569 12.6458 13.7583 12.6815 13.7532C12.7171 13.7481 12.753 13.7366 12.7871 13.7194C12.8211 13.7022 12.8526 13.6795 12.8798 13.6527C12.907 13.626 12.9293 13.5956 12.9455 13.5634L12.9543 13.5462L13.8805 14.8324L13.4053 15.1745C13.2741 15.269 13.2276 15.4286 13.3014 15.5311L13.5687 15.9023C13.6425 16.0049 13.8086 16.0114 13.9399 15.9169L15.8404 14.5484C15.9716 14.4538 16.0181 14.2942 15.9443 14.1917L15.677 13.8205C15.6032 13.718 15.4371 13.7115 15.3058 13.806ZM19.1658 3.1353L2.06136 15.4519C1.53665 15.8297 1.3505 16.4686 1.64569 16.8785L6.99141 24.3023C7.2866 24.7122 7.95152 24.7382 8.47623 24.3604L25.5806 12.0438C26.1054 11.666 26.2915 11.0271 25.9963 10.6172L20.6506 3.19343C20.3554 2.78349 19.6905 2.75746 19.1658 3.1353ZM8.14949 22.9047L7.08035 21.4199C8.13007 20.6641 9.45945 20.7161 10.05 21.5362L8.14949 22.9047ZM4.40749 17.7081L3.33834 16.2233L5.23883 14.8548C5.82937 15.6749 5.45721 16.9522 4.40749 17.7081ZM15.692 16.3462C14.1176 17.4799 12.0035 17.2355 10.9703 15.8006C9.93687 14.3655 10.3756 12.2832 11.95 11.1495C13.5244 10.0158 15.6383 10.26 16.6717 11.6951C17.7053 13.1304 17.2658 15.2129 15.692 16.3462ZM24.3037 11.2724L22.4032 12.6409C21.8126 11.8208 22.1848 10.5435 23.2345 9.78765L24.3037 11.2724ZM20.5617 6.07575C19.5119 6.83164 18.1826 6.7796 17.592 5.9595L19.4925 4.59099L20.5617 6.07575Z" fill="#EA5455"/>
</g>
<defs>
<clipPath id="clip0_1431_82">
<rect width="23.4194" height="14.6371" fill="white" transform="translate(0.0419922 14.6514) rotate(-35.7569)"/>
</clipPath>
</defs>
</svg>
