<svg width="24" height="24" viewBox="0 0 62 62" fill="none" xmlns="http://www.w3.org/2000/svg">
<path d="M59.9172 47.8429L45.9659 33.8916C43.2137 31.1394 39.1034 30.6033 35.7912 32.2355L23.0909 19.5351V12.1365L7.84086 0.698975L0.215857 8.32397L11.6534 23.574H19.052L31.7524 36.2744C30.1321 39.5865 30.6563 43.6968 33.4084 46.449L47.3598 60.4003C49.0993 62.1398 51.911 62.1398 53.6385 60.4003L59.9172 54.1216C61.6448 52.3822 61.6448 49.5705 59.9172 47.8429ZM39.7348 27.5056C43.1065 27.5056 46.2756 28.8162 48.6584 31.199L50.9698 33.5103C52.8522 32.6882 54.6393 31.5445 56.1881 29.9957C60.6082 25.5755 62.1094 19.3564 60.7036 13.7091C60.4414 12.6369 59.0952 12.2675 58.3088 13.0539L49.4448 21.9179L41.3551 20.5716L40.0088 12.482L48.8729 3.61792C49.6592 2.83159 49.278 1.4853 48.1938 1.21128C42.5465 -0.182666 36.3274 1.31851 31.9192 5.72671C28.5237 9.12222 26.9272 13.6019 27.0106 18.0697L36.792 27.8511C37.7571 27.6248 38.7579 27.5056 39.7348 27.5056ZM27.3561 37.2751L20.6008 30.5199L2.44379 48.6888C-0.534729 51.6673 -0.534729 56.4925 2.44379 59.471C5.4223 62.4496 10.2475 62.4496 13.226 59.471L27.9518 44.7453C27.0463 42.3744 26.7723 39.789 27.3561 37.2751ZM7.84086 56.9333C6.2682 56.9333 4.98148 55.6466 4.98148 54.074C4.98148 52.4894 6.25629 51.2146 7.84086 51.2146C9.42543 51.2146 10.7002 52.4894 10.7002 54.074C10.7002 55.6466 9.42543 56.9333 7.84086 56.9333Z" fill="#E5E5E5"/>
</svg>
