<svg width="24" height="24" viewBox="0 0 50 62" fill="none" xmlns="http://www.w3.org/2000/svg">
<path d="M24.7036 2.50965C24.7978 3.06962 26.5999 13.7684 26.5999 17.855C26.5999 24.086 23.3254 28.53 18.4843 30.3171L20.0038 58.6845C20.0862 60.3167 18.8024 61.6987 17.1769 61.6987H9.63841C8.02471 61.6987 6.72903 60.3286 6.81149 58.6845L8.33096 30.3171C3.47807 28.53 0.215332 24.0741 0.215332 17.855C0.215332 13.7565 2.0175 3.06962 2.11173 2.50965C2.48865 0.0911006 7.44754 0.0553581 7.75379 2.64071V19.4634C7.90692 19.8684 9.5324 19.8446 9.63841 19.4634C9.80331 16.4491 10.5689 2.87899 10.5807 2.56923C10.9694 0.0911006 15.8459 0.0911006 16.2228 2.56923C16.2463 2.89091 17.0002 16.4491 17.1651 19.4634C17.2711 19.8446 18.9084 19.8684 19.0497 19.4634V2.64071C19.356 0.0672722 24.3266 0.0911006 24.7036 2.50965ZM38.7439 36.5481L36.9771 58.6011C36.8358 60.269 38.1432 61.6987 39.7923 61.6987H46.3884C47.955 61.6987 49.2153 60.4239 49.2153 58.8393V3.55809C49.2153 1.98544 47.955 0.698718 46.3884 0.698718C36.6709 0.698718 20.31 21.9653 38.7439 36.5481Z" fill="#E5E5E5"/>
</svg>
